HIERARCHY
ROOT Hips
{
	OFFSET 0.000000 0.000000 0.000000
	CHANNELS 6 Xposition Yposition Zposition Zrotation Yrotation Xrotation 
	JOINT LHipJoint
	{
		OFFSET 0.000000 0.000000 0.000000
		CHANNELS 3 Zrotation Yrotation Xrotation
		JOINT LeftUpLeg
		{
			OFFSET 1.363060 -1.794630 0.839290
			CHANNELS 3 Zrotation Yrotation Xrotation
			JOINT LeftLeg
			{
				OFFSET 2.448110 -6.726130 0.000000
				CHANNELS 3 Zrotation Yrotation Xrotation
				JOINT LeftFoot
				{
					OFFSET 2.562200 -7.039590 0.000000
					CHANNELS 3 Zrotation Yrotation Xrotation
					JOINT LeftToeBase
					{
						OFFSET 0.157640 -0.433110 2.322550
						CHANNELS 3 Zrotation Yrotation Xrotation
						End Site
						{
							OFFSET 0.000000 0.000000 0.000000
						}
					}
				}
			}
		}
	}
	JOINT RHipJoint
	{
		OFFSET 0.000000 0.000000 0.000000
		CHANNELS 3 Zrotation Yrotation Xrotation
		JOINT RightUpLeg
		{
			OFFSET -1.305520 -1.794630 0.839290
			CHANNELS 3 Zrotation Yrotation Xrotation
			JOINT RightLeg
			{
				OFFSET -2.542530 -6.985550 0.000000
				CHANNELS 3 Zrotation Yrotation Xrotation
				JOINT RightFoot
				{
					OFFSET -2.568260 -7.056230 0.000000
					CHANNELS 3 Zrotation Yrotation Xrotation
					JOINT RightToeBase
					{
						OFFSET -0.164730 -0.452590 2.363150
						CHANNELS 3 Zrotation Yrotation Xrotation
						End Site
						{
							OFFSET 0.000000 0.000000 0.000000
						}
					}
				}
			}
		}
	}
	JOINT LowerBack
	{
		OFFSET 0.000000 0.000000 0.000000
		CHANNELS 3 Zrotation Yrotation Xrotation
		JOINT Spine
		{
			OFFSET 0.028270 2.035590 -0.193380
			CHANNELS 3 Zrotation Yrotation Xrotation
			JOINT Spine1
			{
				OFFSET 0.056720 2.048850 -0.042750
				CHANNELS 3 Zrotation Yrotation Xrotation
				JOINT Neck
				{
					OFFSET 0.000000 0.000000 0.000000
					CHANNELS 3 Zrotation Yrotation Xrotation
					JOINT Neck1
					{
						OFFSET -0.054170 1.746240 0.172020
						CHANNELS 3 Zrotation Yrotation Xrotation
						JOINT Head
						{
							OFFSET 0.104070 1.761360 -0.123970
							CHANNELS 3 Zrotation Yrotation Xrotation
							End Site
							{
								OFFSET 0.000000 0.000000 0.000000
							}
						}
					}
				}
				JOINT LeftShoulder
				{
					OFFSET 0.000000 0.000000 0.000000
					CHANNELS 3 Zrotation Yrotation Xrotation
					JOINT LeftArm
					{
						OFFSET 3.362410 1.200890 -0.311210
						CHANNELS 3 Zrotation Yrotation Xrotation
						JOINT LeftForeArm
						{
							OFFSET 4.983000 -0.000000 -0.000000
							CHANNELS 3 Zrotation Yrotation Xrotation
							JOINT LeftHand
							{
								OFFSET 3.483560 -0.000000 -0.000000
								CHANNELS 3 Zrotation Yrotation Xrotation
								JOINT LeftFingerBase
								{
									OFFSET 0.000000 0.000000 0.000000
									CHANNELS 3 Zrotation Yrotation Xrotation
									JOINT LeftHandIndex1
									{
										OFFSET 0.715260 -0.000000 -0.000000
										CHANNELS 3 Zrotation Yrotation Xrotation
										End Site
										{
											OFFSET 0.000000 0.000000 0.000000
										}
									}
								}
								JOINT LThumb
								{
									OFFSET 0.000000 0.000000 0.000000
									CHANNELS 3 Zrotation Yrotation Xrotation
									End Site
									{
										OFFSET 0.000000 0.000000 0.000000
									}
								}
							}
						}
					}
				}
				JOINT RightShoulder
				{
					OFFSET 0.000000 0.000000 0.000000
					CHANNELS 3 Zrotation Yrotation Xrotation
					JOINT RightArm
					{
						OFFSET -3.136600 1.374050 -0.404650
						CHANNELS 3 Zrotation Yrotation Xrotation
						JOINT RightForeArm
						{
							OFFSET -5.241900 -0.000000 -0.000000
							CHANNELS 3 Zrotation Yrotation Xrotation
							JOINT RightHand
							{
								OFFSET -3.444170 -0.000000 -0.000000
								CHANNELS 3 Zrotation Yrotation Xrotation
								JOINT RightFingerBase
								{
									OFFSET 0.000000 0.000000 0.000000
									CHANNELS 3 Zrotation Yrotation Xrotation
									JOINT RightHandIndex1
									{
										OFFSET -0.622530 -0.000000 -0.000000
										CHANNELS 3 Zrotation Yrotation Xrotation
										End Site
										{
											OFFSET 0.000000 0.000000 0.000000
										}
									}
								}
								JOINT RThumb
								{
									OFFSET 0.000000 0.000000 0.000000
									CHANNELS 3 Zrotation Yrotation Xrotation
									End Site
									{
										OFFSET 0.000000 0.000000 0.000000
									}
								}
							}
						}
					}
				}
			}
		}
	}
}
MOTION
Frames: 7
Frame Time: 0.008333
1.435518 17.437014 -0.779830 -2.774385 87.387143 11.906972 -10.815676 1.454347 -0.430238 -7.832102 6.371453 -9.492809 -2.371236 -0.715768 5.240042 0.404002 1.922249 -3.990212 0.163200 0.000000 -37.213600 9.635218 0.339861 -1.621726 8.475749 -6.125566 -40.099670 0.983439 -3.352047 43.619326 -0.838592 -3.243714 0.526911 -0.731700 -0.000000 -46.126000 0.239048 -2.368569 2.973903 -1.004269 -2.373128 -2.289717 -8.242900 -2.404043 0.692957 11.974147 -2.983293 -3.634982 -4.272440 -0.342395 0.922042 0.000000 0.000000 0.000000 -4.131799 1.001228 3.157778 -43.759979 -17.569240 18.351522 -2.794811 -53.833163 0.012944 -6.026944 0.863869 -0.037610 -0.098760 0.113039 0.000000 0.000000 0.000000 0.000000 0.000000 0.000000 0.000000 20.527908 -2.464155 1.458672 62.634297 0.568007 8.327280 3.897017 22.568590 0.004919 9.352609 3.477877 0.284489 0.042261 -0.012214 -0.000000 0.000000 0.000000 0.000000 0.000000 0.000000 0.000000 
1.652919 17.413368 -0.755739 1.627170 87.771674 16.234277 -10.886136 1.521987 -0.605588 -7.761551 7.091462 -8.345302 -2.433547 -0.741948 4.667670 0.312267 1.202918 -3.978772 0.124800 0.000001 -37.972400 9.525785 0.416687 -1.427731 8.203535 -5.951653 -40.376398 1.184785 -3.137073 40.481169 -0.822438 -3.240812 1.135765 -0.811700 0.000000 -46.483200 0.316195 -2.588224 2.981859 -0.995713 -2.601805 -2.255764 -8.270385 -2.621799 0.750903 12.159215 -3.622123 -3.803153 -4.266823 -0.341011 0.881680 0.000000 0.000000 0.000000 -3.618099 0.707842 3.169503 -42.408652 -18.406443 17.992760 -2.638933 -55.412332 0.014292 -6.034939 0.852082 -0.036521 -0.091852 0.124747 0.000000 0.000000 0.000000 0.000000 0.000000 0.000000 0.000000 20.777822 -3.211275 1.439462 62.347244 -0.389777 8.915911 3.870528 23.193085 0.004906 9.162528 3.839384 0.307388 0.042593 -0.010588 -0.000000 0.000000 0.000000 0.000000 0.000000 0.000000 0.000000 
1.869570 17.383470 -0.728396 10.023303 88.186301 24.555080 -10.939190 1.563798 -0.792903 -7.705031 7.729054 -7.177930 -2.497443 -0.774149 4.173806 0.228538 0.511863 -4.045594 0.088601 0.000000 -38.883101 9.432037 0.472369 -1.223587 7.828205 -5.814513 -40.572348 1.377692 -2.905559 37.172022 -0.815419 -3.307768 1.894436 -0.916700 0.000000 -46.559000 0.332552 -2.820820 2.999081 -1.004764 -2.843034 -2.221211 -8.289050 -2.851853 0.801706 12.342022 -4.259541 -3.966205 -4.257619 -0.339492 0.842331 0.000000 0.000000 0.000000 -3.068826 0.392328 3.177323 -41.013191 -19.190594 17.525567 -2.483192 -56.897507 0.015666 -6.057283 0.853782 -0.036142 -0.084088 0.136640 0.000000 0.000000 0.000000 0.000000 0.000000 0.000000 0.000000 21.013389 -3.961028 1.412909 62.068089 -1.393855 9.323988 3.836588 23.960758 0.004958 8.965193 4.210016 0.329589 0.042675 -0.009339 -0.000000 0.000000 0.000000 0.000000 0.000000 0.000000 0.000000 
2.085957 17.347699 -0.698222 23.733383 88.629954 38.200527 -10.923331 1.589801 -0.991417 -7.633217 8.263319 -5.997000 -2.561404 -0.811148 3.748810 0.155048 -0.134059 -4.179814 0.057600 0.000000 -39.967901 9.392510 0.522425 -1.000373 7.386552 -5.706254 -40.701880 1.560369 -2.654354 33.697121 -0.814476 -3.422701 2.763370 -1.041900 0.000000 -46.340400 0.367037 -3.067142 3.017567 -1.012875 -3.100726 -2.183115 -8.298180 -3.097532 0.867456 12.518394 -4.976140 -4.152039 -4.242247 -0.337397 0.796811 0.000000 0.000000 0.000000 -2.497405 0.080065 3.168948 -39.589740 -19.954940 16.955339 -2.327868 -58.271502 0.017100 -6.099594 0.863313 -0.036374 -0.075190 0.148665 -0.000000 0.000000 0.000000 0.000000 0.000000 0.000000 0.000000 21.231101 -4.799351 1.378569 61.773323 -2.325213 9.717521 3.797732 24.818441 0.005099 8.741545 4.606815 0.351392 0.042850 -0.008423 -0.000000 0.000000 0.000000 0.000000 0.000000 0.000000 0.000000 
2.302569 17.306521 -0.665746 42.228633 88.988500 56.648210 -10.801551 1.650170 -1.189183 -7.521392 8.699585 -4.819228 -2.620843 -0.836715 3.364160 0.096941 -0.703558 -4.366599 0.033600 0.000000 -41.230000 9.446067 0.633200 -0.760865 6.923752 -5.587716 -40.761258 1.722934 -2.364292 30.075127 -0.808361 -3.541652 3.709328 -1.178000 0.000000 -45.888700 0.471449 -3.290272 3.029298 -0.998155 -3.335775 -2.144762 -8.301032 -3.321440 0.945942 12.686307 -5.757381 -4.358437 -4.219598 -0.334617 0.745925 0.000000 0.000000 0.000000 -1.919589 -0.209624 3.138819 -38.150923 -20.684492 16.283748 -2.173036 -59.540113 0.018595 -6.165438 0.877906 -0.037018 -0.065024 0.160552 -0.000000 0.000000 0.000000 0.000000 0.000000 0.000000 0.000000 21.421273 -5.688792 1.341936 61.462477 -3.193155 10.057457 3.757377 25.766304 0.005327 8.524238 4.999103 0.371700 0.043171 -0.007918 -0.000000 0.000000 0.000000 0.000000 0.000000 0.000000 0.000000 
2.519813 17.260581 -0.631370 61.066590 89.112313 75.456320 -10.657916 1.763874 -1.366224 -7.401543 9.046879 -3.657942 -2.670032 -0.840015 3.001228 0.054575 -1.176375 -4.578419 0.016800 -0.000000 -42.645600 9.538221 0.821781 -0.521449 6.437415 -5.444591 -40.764082 1.865143 -2.023729 26.332835 -0.782872 -3.609201 4.700178 -1.312200 0.000000 -45.326000 0.550230 -3.458391 3.027841 -0.975444 -3.510063 -2.109452 -8.295689 -3.486547 1.024264 12.842673 -6.562873 -4.570637 -4.190537 -0.331342 0.693606 0.000000 0.000000 0.000000 -1.345252 -0.467448 3.089764 -36.702903 -21.343926 15.514231 -2.020431 -60.715261 0.020132 -6.256236 0.895485 -0.038074 -0.053711 0.171924 -0.000000 0.000000 0.000000 0.000000 0.000000 0.000000 0.000000 21.578891 -6.571074 1.305584 61.147370 -4.042046 10.260196 3.717872 26.812674 0.005618 8.353270 5.351524 0.389811 0.043533 -0.007881 -0.000000 0.000000 0.000000 0.000000 0.000000 0.000000 0.000000 
2.738083 17.210588 -0.595506 75.701939 89.020317 90.077195 -10.563286 1.890762 -1.522103 -7.308453 9.295825 -2.504562 -2.708430 -0.831384 2.670089 0.022104 -1.564261 -4.778286 0.006100 0.000001 -44.167900 9.608584 1.028918 -0.285040 5.903288 -5.315854 -40.735746 2.000357 -1.646066 22.480922 -0.732657 -3.586076 5.697830 -1.427100 -0.000000 -44.805500 0.534732 -3.594759 3.012908 -0.966746 -3.647264 -2.076741 -8.277728 -3.615645 1.099627 12.982727 -7.382648 -4.782240 -4.156821 -0.327774 0.641502 0.000000 0.000000 0.000000 -0.781637 -0.705045 3.029238 -35.250865 -21.920683 14.656065 -1.873236 -61.797735 0.021727 -6.371568 0.913848 -0.039340 -0.041532 0.182780 -0.000000 0.000000 0.000000 0.000000 0.000000 0.000000 0.000000 21.706282 -7.451645 1.266362 60.833405 -4.877117 10.312802 3.679825 27.946403 0.005916 8.241652 5.647459 0.405922 0.043845 -0.008131 -0.000000 0.000000 0.000000 0.000000 0.000000 0.000000 0.000000 
